<?xml version="1.0" encoding="UTF-8" standalone="no"?>
<!DOCTYPE svg PUBLIC "-//W3C//DTD SVG 20010904//EN"
              "http://www.w3.org/TR/2001/REC-SVG-20010904/DTD/svg10.dtd">

<svg xmlns="http://www.w3.org/2000/svg"
     width="26.6667in" height="15in"
     viewBox="0 0 1920 1080">
  <path id="b"
        fill="none" stroke="black" stroke-width="1"
        d="M 566.28,458.16
           C 561.49,458.16 557.10,456.96 553.11,454.56
             549.13,452.17 546.02,449.07 543.78,445.28
             543.78,445.28 543.78,457.00 543.78,457.00
             543.78,457.00 536.70,457.00 536.70,457.00
             536.70,457.00 536.70,372.31 536.70,372.31
             536.70,372.31 544.59,372.31 544.59,372.31
             544.59,372.31 544.59,409.20 544.59,409.20
             547.29,405.11 550.54,401.81 554.33,399.30
             558.12,396.78 562.53,395.52 567.56,395.52
             571.81,395.52 575.62,396.41 578.98,398.19
             582.35,399.97 585.21,402.35 587.56,405.33
             589.93,408.30 591.74,411.66 593.02,415.42
             594.30,419.17 594.94,423.02 594.94,426.95
             594.94,431.21 594.20,435.24 592.73,439.03
             591.27,442.81 589.25,446.12 586.70,448.94
             584.15,451.76 581.11,454.01 577.59,455.67
             574.07,457.33 570.30,458.16 566.28,458.16 Z
           M 564.42,451.20
           C 567.74,451.20 570.77,450.53 573.52,449.17
             576.27,447.82 578.62,446.00 580.59,443.72
             582.57,441.44 584.12,438.85 585.23,435.95
             586.36,433.05 586.92,430.05 586.92,426.95
             586.92,423.79 586.40,420.73 585.36,417.80
             584.32,414.86 582.85,412.25 580.95,409.97
             579.05,407.69 576.77,405.87 574.11,404.52
             571.44,403.16 568.52,402.48 565.36,402.48
             562.95,402.48 560.70,402.89 558.61,403.70
             556.52,404.52 554.59,405.62 552.81,407.02
             551.04,408.40 549.46,410.01 548.06,411.83
             546.68,413.64 545.52,415.55 544.59,417.56
             544.59,417.56 544.59,436.36 544.59,436.36
             544.89,438.45 545.72,440.40 547.08,442.22
             548.43,444.03 550.05,445.59 551.95,446.91
             553.85,448.22 555.89,449.27 558.09,450.05
             560.30,450.82 562.41,451.20 564.42,451.20 Z" />
  <path id="e"
        fill="none" stroke="black" stroke-width="1"
        d="M 562.80,458.16
           C 558.39,458.16 554.35,457.33 550.67,455.67
             547.00,454.01 543.82,451.73 541.11,448.83
             538.40,445.92 536.29,442.58 534.78,438.80
             533.28,435.01 532.53,430.95 532.53,426.61
             532.53,422.36 533.28,418.36 534.78,414.61
             536.29,410.85 538.38,407.56 541.05,404.75
             543.71,401.93 546.90,399.68 550.61,398.02
             554.33,396.35 558.35,395.52 562.69,395.52
             567.09,395.52 571.13,396.35 574.80,398.02
             578.47,399.68 581.62,401.95 584.25,404.81
             586.88,407.67 588.94,410.95 590.41,414.67
             591.88,418.38 592.61,422.32 592.61,426.48
             592.61,427.11 592.61,427.73 592.61,428.36
             592.61,428.98 592.57,429.40 592.50,429.62
             592.50,429.62 540.77,429.62 540.77,429.62
             540.99,432.88 541.74,435.88 543.02,438.62
             544.30,441.37 545.94,443.74 547.95,445.75
             549.96,447.76 552.26,449.33 554.84,450.45
             557.44,451.57 560.20,452.12 563.14,452.12
             565.08,452.12 567.01,451.86 568.94,451.31
             570.88,450.77 572.66,450.04 574.28,449.11
             575.91,448.18 577.38,447.04 578.69,445.69
             580.00,444.34 581.00,442.84 581.70,441.22
             581.70,441.22 588.55,443.08 588.55,443.08
             587.62,445.32 586.30,447.35 584.61,449.17
             582.91,450.98 580.94,452.57 578.69,453.92
             576.45,455.28 573.97,456.32 571.27,457.05
             568.55,457.79 565.73,458.16 562.80,458.16 Z
           M 585.08,423.59
           C 584.84,420.34 584.08,417.39 582.80,414.72
             581.52,412.05 579.91,409.76 577.94,407.83
             575.97,405.89 573.69,404.38 571.09,403.30
             568.50,402.21 565.73,401.67 562.80,401.67
             559.86,401.67 557.07,402.21 554.44,403.30
             551.81,404.38 549.52,405.89 547.55,407.83
             545.58,409.76 543.99,412.07 542.78,414.78
             541.58,417.49 540.87,420.43 540.64,423.59
             540.64,423.59 585.08,423.59 585.08,423.59 Z" />
</svg>
